<?xml version="1.0" encoding="UTF-8" standalone="no"?>
<!-- Generator: Adobe Illustrator 16.0.3, SVG Export Plug-In . SVG Version: 6.00 Build 0)  -->

<svg
   version="1.1"
   id="Capa_1"
   x="0px"
   y="0px"
   width="522.38898"
   height="720.00037"
   viewBox="0 0 522.38895 720.00035"
   enable-background="new 0 0 595.28 841.89"
   xml:space="preserve"
   sodipodi:docname="Logo de Conagua.svg"
   inkscape:version="1.1 (c68e22c387, 2021-05-23)"
   xmlns:inkscape="http://www.inkscape.org/namespaces/inkscape"
   xmlns:sodipodi="http://sodipodi.sourceforge.net/DTD/sodipodi-0.dtd"
   xmlns:xlink="http://www.w3.org/1999/xlink"
   xmlns="http://www.w3.org/2000/svg"
   xmlns:svg="http://www.w3.org/2000/svg"><defs
   id="defs113"><linearGradient
     inkscape:collect="always"
     id="linearGradient3974"><stop
       style="stop-color:#21386b;stop-opacity:1"
       offset="0"
       id="stop3970" /><stop
       style="stop-color:#2f7dbc;stop-opacity:1"
       offset="1"
       id="stop3972" /></linearGradient><linearGradient
     inkscape:collect="always"
     xlink:href="#linearGradient3974"
     id="linearGradient3976"
     x1="11.27874"
     y1="554.17163"
     x2="3.3556054"
     y2="372.30432"
     gradientUnits="userSpaceOnUse" /><linearGradient
     inkscape:collect="always"
     xlink:href="#linearGradient3974"
     id="linearGradient11951"
     x1="40.344135"
     y1="582.45837"
     x2="8.3620024"
     y2="386.54718"
     gradientUnits="userSpaceOnUse" /></defs><sodipodi:namedview
   id="namedview111"
   pagecolor="#ffffff"
   bordercolor="#666666"
   borderopacity="1.0"
   inkscape:pageshadow="2"
   inkscape:pageopacity="0.0"
   inkscape:pagecheckerboard="0"
   showgrid="false"
   fit-margin-top="0"
   fit-margin-left="0"
   fit-margin-right="0"
   fit-margin-bottom="0"
   inkscape:zoom="0.34940006"
   inkscape:cx="319.11843"
   inkscape:cy="276.1877"
   inkscape:window-width="1920"
   inkscape:window-height="1017"
   inkscape:window-x="1912"
   inkscape:window-y="-8"
   inkscape:window-maximized="1"
   inkscape:current-layer="Capa_1" />
<g
   id="g108"
   transform="matrix(2.5923173,0,0,2.5923173,198.97443,-727.71207)">
	<g
   id="g106">
		
		<path
   fill-rule="evenodd"
   clip-rule="evenodd"
   fill="#BD955B"
   d="m -11.31,499.75 c -1.792,-1.151 -3.173,-2.629 -4.335,-4.292 -6.789,-9.722 -8.703,-22.926 -1.149,-34.676 1.167,-1.814 2.325,-3.639 3.582,-5.391 0.562,-0.782 0.439,-1.079 -0.403,-1.419 -1.064,-0.429 -2.078,-0.984 -3.232,-1.543 2.639,-2.425 5.186,-4.771 7.737,-7.11 10.924,-10.021 21.848,-20.041 32.774,-30.058 4.21,-3.86 8.413,-7.73 12.654,-11.557 0.688,-0.62 0.874,-1.238 0.698,-2.105 -0.182,-0.896 -0.203,-1.825 -0.388,-2.72 -0.298,-1.441 0.428,-2.095 1.664,-2.571 3.511,-1.353 7.145,-2.276 10.785,-3.172 6.121,-1.508 12.251,-2.985 18.458,-4.106 2.442,-0.441 4.909,-0.645 7.384,-0.151 3.224,0.643 5.494,3.302 5.659,6.574 0.037,0.722 -0.271,0.842 -0.873,0.944 -4.484,0.756 -8.961,1.557 -13.443,2.327 -1.183,0.203 -2.329,0.508 -3.667,1.045 2.22,0.654 3.816,1.982 5.552,3.104 3.005,1.944 4.281,1.315 5.904,-0.738 2.557,-3.232 5.817,-4.733 9.994,-4.684 4.104,0.049 8.066,0.434 11.654,2.581 4.533,2.712 7.009,6.661 6.929,12.036 -0.025,1.689 -0.486,3.291 -1.271,4.833 -0.61,-0.481 -1.145,-0.962 -1.737,-1.357 -1.187,-0.792 -2.483,-1.253 -3.944,-1.193 -0.958,0.04 -1.93,0.099 -2.877,-0.008 -3.744,-0.422 -6.343,1.415 -8.474,4.198 -3.073,4.013 -4.856,8.597 -5.887,13.5 -0.632,3.005 -1.39,5.982 -1.854,9.024 -0.554,3.623 0.478,5.339 4.026,6.298 3.36,0.908 6.848,1.111 10.259,1.75 8.761,1.64 17.464,3.481 25.61,7.266 2.544,1.182 4.988,2.564 6.779,4.818 2.061,2.593 1.528,5.503 1.127,8.582 -1.294,-1.058 -2.353,-2.026 -3.511,-2.853 -8.4,-5.992 -17.506,-6.667 -26.982,-3.209 -2.132,0.778 -3.497,0.672 -5.399,-0.656 -6.686,-4.67 -13.982,-5.882 -21.677,-2.646 -4.645,1.953 -7.94,5.428 -10.218,9.87 -0.427,0.832 -0.728,0.961 -1.588,0.529 -5.015,-2.517 -10.264,-4.161 -15.953,-4.178 -6.884,-0.02 -12.902,2.299 -18.208,6.588 -3.429,2.772 -6.213,6.102 -8.254,10.015 -0.435,0.833 -0.907,1 -1.777,0.863 -3.763,-0.591 -7.492,-0.457 -11.089,0.916 -5.342,2.038 -8.413,6.135 -10.128,11.404 -0.346,1.052 -0.588,2.135 -0.911,3.328 z"
   id="path4"
   style="fill:#be965b;fill-opacity:1" />
		<path
   id="path6"
   d="m 51.294922,280.71875 c -0.574,0.614 -0.895563,0.96559 -1.226563,1.30859 -7.858,8.14 -15.714218,16.27902 -23.574218,24.41602 -6,6.21 -12.00586,12.415 -18.0058598,18.625 -10.0549999,10.407 -20.1292502,20.79647 -30.1562502,31.23047 -6.869,7.148 -14.072203,13.97348 -20.658203,21.39648 -9.455,10.657 -17.835281,22.04849 -24.113281,34.89649 -5.669,11.601 -9.392047,23.77412 -10.123047,36.70312 -0.834,14.754 1.006844,29.18977 6.089844,43.13477 1.392502,3.82063 2.888971,7.59927 4.878906,11.16015 0,0 0,0.002 0,0.002 0,0 0.002,0.002 0.002,0.002 0.07254,0.18327 0.129137,0.37362 0.21875,0.54687 5.203,10.09201 11.912891,19.04869 20.212891,26.80469 5.205,4.863 10.827234,9.16982 16.990234,12.75781 0,0 0,0.002 0,0.002 5.182,3.2 10.674281,5.77006 16.363281,7.91406 15.0990004,5.691 30.707485,7.83078 46.771485,6.42578 6.449,-0.565 12.776031,-1.8798 18.957031,-3.8418 0.079,-0.003 0.161328,0.0113 0.236328,-0.0117 16.368,-5.092 30.827719,-13.37902 42.886719,-25.66602 1.605,-1.636 3.178491,-3.31387 4.646491,-5.29687 -0.378,0 -0.57072,-0.003 -0.76172,0.002 -4.481006,0.115 -8.597552,1.52481 -12.560552,3.50781 -3.068,1.534 -6.159219,2.9933 -9.574219,3.6543 -2.955,0.571 -5.750609,0.60214 -8.34961,-1.25586 -1.194,-0.853 -2.563843,-1.45431 -3.839843,-2.19531 -4.527,-2.63 -9.224531,-4.37232 -14.644531,-3.94532 -4.959,0.391 -9.674094,1.42735 -14.121094,3.65235 3.35e-4,3.7e-4 -3.35e-4,0.002 0,0.002 -2.578,0.945 -5.110094,1.99383 -7.746094,2.79883 -4.949,1.511 -9.541625,0.83758 -13.890625,-1.85742 -1.934,-1.199 -3.879578,-2.37944 -5.767578,-3.64844 -3.0200001,-2.03 -6.2892189,-2.66049 -9.82421888,-1.89648 -4.82800002,1.04399 -9.64023442,2.17657 -14.61523412,2.26757 -0.279,-0.011 -0.559891,-0.0462 -0.837891,-0.0312 -5.399,0.315 -10.253437,-1.30159 -14.648437,-4.30859 -7.422,-5.077 -13.34636,-11.60466 -18.06836,-19.22266 -2.501684,-4.03649 -4.357893,-8.40721 -6.222656,-12.76367 0,0 0,-0.002 0,-0.002 -0.06372,-0.22845 -0.10555,-0.46517 -0.195312,-0.6836 -6.124,-14.885 -6.419204,-30.16567 -2.908204,-45.63867 2.629,-11.583 8.032016,-21.90781 14.916016,-31.50781 6.567,-9.159 14.244344,-17.35108 22.027344,-25.45508 9.386,-9.775 18.7577185,-19.56565 28.1367185,-29.34765 11.9229995,-12.436 23.8009215,-24.91616 35.7949215,-37.28516 5.189,-5.351 8.020641,-11.53502 7.806641,-19.04102 -0.122,-4.275 -0.204453,-8.55312 -0.314453,-12.82812 -0.044,-1.722 -0.1175,-3.44147 -0.1875,-5.48047 z M -15.3125,524.35547 c 0.182337,-7.8e-4 0.374965,0.0178 0.574219,0.0449 -0.253416,0.008 -0.504688,-0.01 -0.753907,-0.0332 0.06017,-0.003 0.117686,-0.0115 0.179688,-0.0117 z"
   style="fill:url(#linearGradient3976);fill-opacity:1" />
		<path
   id="path8"
   d="m 51.492188,325.63672 c -1.001001,0.938 -1.72186,1.55923 -2.38086,2.24023 -10.283,10.631 -20.556937,21.2693 -30.835937,31.9043 -5.334,5.518 -10.6878129,11.01683 -16.0078129,16.54883 -9.42,9.796 -18.7347191,19.69867 -28.2617191,29.38867 -6.85,6.967 -12.561859,14.65659 -16.630859,23.55859 -5.516,12.07 -7.761187,24.78152 -7.492188,37.97852 0.055,2.703 0.302313,5.41311 1.070313,8.03711 6.73e-4,3.6e-4 0.0013,-3.6e-4 0.002,0 -8.13e-4,2.9e-4 -0.0011,0.002 -0.002,0.002 0.107,0.703 0.154031,1.42047 0.332031,2.10547 1.872,7.183 4.690422,13.9702 8.607422,20.2832 2.639,4.254 5.597125,8.26253 9.328125,11.64453 0,0 0,-0.002 0,-0.002 0.429,0.414 0.845063,0.84419 1.289063,1.24219 6.753,6.052 14.488062,8.5983 23.5390621,6.7793 3.852,-0.774 7.5519063,-2.01091 11.2539063,-3.25391 5.7289996,-1.925 11.2675776,-1.88917 16.6425776,1.17383 1.52,0.866 3.155282,1.5272 4.738282,2.2832 5.211,2.493 10.526344,2.9078 16.027344,0.9668 3.386999,-1.195 6.729187,-2.50742 9.992187,-3.98242 5.84,-2.637 11.361375,-2.25327 16.734375,1.17773 1.31,0.837 2.673875,1.59327 4.046875,2.32227 1.62,0.86 3.271047,1.66311 5.123047,1.91211 0.899,0.378 1.851641,0.41879 2.80664,0.46679 4.885,0.242 9.370001,-1.24969 13.75,-3.17968 4.236,-1.86501 8.601298,-3.18827 13.279298,-3.19727 0.508,-10e-4 0.81308,-0.20666 1.08008,-0.59766 2.073,-3.032 4.17792,-6.04442 5.79492,-9.35742 0.524,-1.075 1.04898,-2.16348 1.08398,-3.39648 0.033,-1.156 -0.33728,-1.51852 -1.48828,-1.47852 -0.688,0.025 -1.33379,0.22456 -1.96679,0.47656 -1.375,0.548 -2.66218,1.26929 -3.95118,1.98829 -4.389,2.44699 -8.64268,5.13035 -13.179684,7.31835 -2.276,1.098 -4.538656,1.29089 -6.972656,0.71289 -3.193,-0.758 -6.016609,-2.31632 -8.849609,-3.86132 -4.771,-2.601 -9.778485,-4.07211 -15.271485,-3.41211 -2.624,0.061 -5.125562,0.74025 -7.601562,1.53125 -3.689,1.18 -7.170375,2.90579 -10.859375,4.09179 -3.493,1.123 -6.83536,0.9264 -10.06836,-0.84961 -1.959,-1.07499 -3.946765,-2.10093 -5.884765,-3.21093 -4.88,-2.795 -9.957422,-3.30013 -15.357422,-1.70313 -4.571,1.35 -8.888922,3.32022 -13.294922,5.07422 -4.605,1.833 -9.1724844,1.83778 -13.771484,0.0508 -3.462,-1.345 -6.283282,-3.59526 -8.863282,-6.19726 -3.795,-4.416 -6.486531,-9.44071 -8.269531,-14.97071 -1.439,-4.468 -2.294656,-9.05684 -2.722656,-13.71484 -0.193,-2.098 -0.02644,-4.2297 -0.02344,-6.3457 -7.4e-5,-0.003 7.9e-5,-0.005 0,-0.008 0.211666,-0.28081 0.12675,-0.60895 0.138672,-0.91992 0.259,-6.792 1.478516,-13.39434 3.853516,-19.77734 3.394,-9.12 9.009156,-16.76933 15.660156,-23.73633 6.9830001,-7.314 13.9728439,-14.61883 20.9648439,-21.92383 11.9690001,-12.504 23.9290151,-25.016 35.9160151,-37.5 4.791,-4.989 7.346094,-10.86145 7.246094,-17.81445 -0.063,-4.436 -0.205062,-8.87064 -0.289062,-13.30664 -0.033,-1.771 -0.0039,-3.5405 -0.0039,-5.5625 z"
   style="fill:url(#linearGradient11951);fill-opacity:1" />
		<path
   fill-rule="evenodd"
   clip-rule="evenodd"
   fill="#727070"
   d="m 336.122,412.842 c 0,-4.25 0.085,-8.162 -0.02,-12.068 -0.163,-6.151 -0.253,-12.306 -0.665,-18.448 -0.137,-2.032 -0.353,-4.059 -0.512,-6.09 -0.102,-1.295 -0.737,-2.091 -1.975,-2.558 -2.323,-0.877 -4.706,-1.545 -7.125,-2.051 -1.204,-0.252 -1.478,-0.729 -1.115,-1.841 0.283,-0.869 0.521,-1.777 0.593,-2.682 0.072,-0.907 0.53,-0.986 1.262,-0.984 8.6,0.016 17.2,0.024 25.799,-0.011 0.821,-0.003 1.121,0.287 1.251,1.026 0.193,1.1 0.408,2.201 0.697,3.278 0.186,0.689 -0.083,0.907 -0.685,1.087 -2.332,0.698 -4.645,1.462 -6.98,2.146 -0.638,0.187 -0.871,0.475 -0.932,1.146 -0.453,5.018 -0.586,10.049 -0.721,15.082 -0.374,13.989 -0.45,27.981 -0.421,41.975 0.002,0.752 -0.211,1.047 -0.962,1.11 -2.866,0.241 -5.73,0.503 -8.589,0.82 -0.832,0.093 -1.122,-0.427 -1.481,-0.951 -7.217,-10.521 -14.883,-20.708 -22.799,-30.709 -4.016,-5.072 -8.035,-10.141 -12.302,-15.162 0,2.006 -0.029,4.013 0.005,6.018 0.109,6.355 0.188,12.711 0.386,19.063 0.121,3.869 0.256,7.743 0.766,11.593 0.153,1.155 0.701,1.799 1.719,2.198 2.578,1.01 5.292,1.514 7.965,2.168 0.193,0.048 0.388,0.122 0.583,0.13 0.974,0.041 1.17,0.469 0.886,1.391 -0.374,1.212 -0.217,2.846 -0.979,3.609 -0.793,0.794 -2.433,0.238 -3.698,0.242 -7.561,0.023 -15.12,-0.012 -22.68,0.037 -1.112,0.008 -1.694,-0.201 -1.778,-1.423 -0.063,-0.904 -0.349,-1.8 -0.589,-2.684 -0.186,-0.683 0.015,-0.998 0.706,-1.195 2.187,-0.625 4.337,-1.384 6.538,-1.945 0.98,-0.249 1.272,-0.739 1.302,-1.646 0.144,-4.433 0.406,-8.863 0.458,-13.296 0.101,-8.717 0.15,-17.437 -0.06,-26.153 -0.07,-2.91 -0.112,-5.829 -0.565,-8.723 -0.171,-1.09 -0.639,-1.819 -1.629,-2.303 -1.977,-0.965 -4,-1.817 -6.103,-2.454 -0.834,-0.253 -1.08,-0.61 -0.783,-1.45 0.237,-0.672 0.314,-1.4 0.469,-2.102 0.421,-1.906 0.423,-1.884 2.405,-1.909 5.397,-0.068 10.793,-0.153 16.19,-0.24 0.576,-0.009 1.044,0.019 1.402,0.631 5.027,8.576 11.098,16.419 17.199,24.23 5.636,7.214 11.401,14.326 17.109,21.482 0.096,0.125 0.187,0.253 0.458,0.616 z"
   id="path10"
   style="fill:#727070;fill-opacity:1" />
		
		<path
   id="path14"
   d="m 244.5,364.61914 c -14.146,-0.239 -24.9875,5.62442 -31.9375,17.98242 -5.028,8.939 -5.90506,18.63131 -3.66406,28.57032 1.974,8.755 6.80886,15.50098 14.75586,19.83398 5.758,3.141 11.994,4.23809 18.5,3.99609 10.07,-0.374 18.38767,-4.3844 24.76367,-12.1914 5.911,-7.237 8.25422,-15.72546 8.32422,-24.93946 0.042,-2.329 -0.14353,-4.63573 -0.51953,-6.92773 -1.341,-8.157 -4.85683,-15.09411 -11.54883,-20.16211 -5.505,-4.169 -11.82083,-6.04611 -18.67383,-6.16211 z m -3.57031,8.60352 c 2.65064,-0.0516 5.27939,0.38975 7.86914,1.48437 5.578,2.358 8.39898,7.0153 10.08398,12.5293 1.319,4.318 1.71371,8.76698 1.72071,15.08398 -0.018,4.463 -0.94975,10.5546 -3.34375,16.4336 -1.348,3.308 -3.64835,5.37484 -6.90235,6.46484 -6.738,2.258 -13.2442,1.98883 -19.1582,-2.32617 -3.977,-2.901 -6.23249,-7.04356 -7.39649,-11.72656 -2.594,-10.429 -1.76264,-20.55219 2.81836,-30.36719 1.681,-3.602 4.37985,-5.63772 8.08985,-6.63672 2.08293,-0.56088 4.15714,-0.89932 6.21875,-0.93945 z"
   style="fill:#727070;fill-opacity:1" />
		<path
   fill-rule="evenodd"
   clip-rule="evenodd"
   fill="#727070"
   d="m 495.807,400.689 c 4.479,0 8.959,0.026 13.438,-0.023 0.858,-0.009 1.217,0.247 1.331,1.078 0.137,0.986 0.275,1.993 0.595,2.928 0.363,1.067 -0.09,1.356 -1.007,1.599 -1.889,0.5 -3.735,1.157 -5.627,1.641 -0.898,0.23 -1.229,0.687 -1.258,1.565 -0.098,2.955 -0.257,5.907 -0.351,8.861 -0.087,2.716 -0.146,5.434 -0.155,8.151 -0.003,0.688 -0.368,0.983 -0.844,1.307 -4.871,3.309 -10.282,5.297 -16.023,6.37 -8.274,1.548 -16.498,1.33 -24.437,-1.675 -10.947,-4.143 -17.274,-12.263 -19.443,-23.642 -1.515,-7.947 -1.05,-15.779 2.41,-23.215 4.895,-10.519 13.266,-16.965 24.361,-19.734 11.489,-2.867 22.586,-1.275 33.172,3.974 1.116,0.554 2.17,2.56 1.982,3.774 -0.79,5.089 -1.821,10.134 -2.841,15.181 -0.135,0.664 -0.388,0.835 -1.014,0.824 -2.237,-0.042 -4.473,-0.104 -6.706,-0.265 -0.72,-0.052 -0.912,-0.338 -1.007,-1.013 -0.554,-3.913 -1.303,-7.788 -2.376,-11.597 -0.208,-0.739 -0.571,-1.264 -1.282,-1.606 -7.979,-3.838 -15.913,-3.874 -23.809,0.24 -0.792,0.413 -1.421,1.002 -1.963,1.719 -4.556,6.032 -6.746,12.879 -7.073,20.378 -0.232,5.321 0.32,10.522 2.35,15.5 4.035,9.897 12.564,14.371 22.874,13.454 2.68,-0.238 5.278,-0.829 7.774,-1.856 0.544,-0.224 0.824,-0.509 0.8,-1.146 -0.164,-4.309 -0.129,-8.627 -0.831,-12.904 -0.18,-1.096 -0.709,-1.797 -1.688,-2.281 -1.946,-0.962 -4.016,-1.555 -6.093,-2.125 -0.667,-0.183 -1.02,-0.373 -0.751,-1.208 0.34,-1.058 0.549,-2.171 0.687,-3.277 0.104,-0.833 0.471,-1 1.246,-0.994 4.52,0.036 9.039,0.017 13.559,0.017 z"
   id="path16"
   style="fill:#727070;fill-opacity:1" />
		<path
   fill-rule="evenodd"
   clip-rule="evenodd"
   fill="#727070"
   d="m 534.435,366.129 c 4.64,0 9.28,0.017 13.919,-0.016 0.778,-0.006 1.182,0.178 1.258,1.01 0.061,0.671 0.272,1.327 0.404,1.993 0.419,2.121 0.416,2.121 -1.704,2.762 -1.833,0.555 -3.66,1.131 -5.501,1.659 -0.651,0.187 -0.955,0.469 -1.005,1.216 -0.263,3.948 -0.437,7.899 -0.479,11.854 -0.059,5.398 -0.136,10.797 -0.096,16.194 0.028,3.795 0.289,7.582 1.304,11.275 2.114,7.694 6.811,11.519 14.777,11.979 3.438,0.199 6.756,-0.321 9.968,-1.61 3.893,-1.563 6.331,-4.079 6.78,-8.517 0.41,-4.056 0.895,-8.096 0.936,-12.176 0.049,-4.758 0.19,-9.519 0.08,-14.274 -0.109,-4.668 0.068,-9.351 -0.52,-14.006 -0.111,-0.879 -0.497,-1.36 -1.27,-1.681 -2.367,-0.983 -4.833,-1.653 -7.307,-2.28 -0.84,-0.212 -0.995,-0.559 -0.791,-1.335 0.285,-1.08 0.488,-2.182 0.694,-3.28 0.106,-0.565 0.367,-0.779 0.969,-0.778 8.479,0.019 16.959,0.017 25.438,0.004 0.584,0 0.85,0.174 0.948,0.784 0.191,1.18 0.421,2.361 0.745,3.51 0.197,0.694 -0.03,0.877 -0.646,1.053 -2.456,0.7 -4.888,1.484 -7.347,2.17 -0.712,0.199 -0.936,0.521 -0.946,1.243 -0.068,4.195 -0.219,8.389 -0.277,12.584 -0.097,6.956 -0.026,13.916 -0.248,20.867 -0.179,5.625 -1.545,10.982 -4.697,15.758 -3.838,5.814 -9.405,9 -16.09,10.333 -5.916,1.18 -11.854,1.081 -17.7,-0.468 -8.549,-2.266 -13.814,-7.928 -16.417,-16.237 -1.482,-4.733 -1.998,-9.606 -2.023,-14.542 -0.022,-4.439 0.008,-8.879 -0.008,-13.319 -0.016,-4.116 -0.15,-8.227 -0.34,-12.34 -0.11,-2.408 -1.052,-3.887 -3.402,-4.525 -1.614,-0.438 -3.174,-1.076 -4.781,-1.542 -0.619,-0.179 -0.729,-0.389 -0.565,-0.993 0.292,-1.077 0.544,-2.174 0.684,-3.279 0.112,-0.877 0.503,-1.076 1.336,-1.069 4.64,0.04 9.28,0.019 13.92,0.019 z"
   id="path18"
   style="fill:#727070;fill-opacity:1" />
		<path
   id="path20"
   d="m 641.89258,365.125 c -4.241,0.1 -8.43333,0.61484 -12.61133,1.33984 -0.927,0.161 -1.32123,0.57374 -1.61523,1.42774 -6.304,18.305 -13.63289,36.20476 -21.2129,54.00976 -1,2.349 -2.27382,3.97074 -4.79882,4.55274 -0.884,0.204 -1.70755,0.66676 -2.56055,1.00976 -2.279,0.915 -2.27936,0.91458 -1.81836,3.26758 0.098,0.508 0.2232,1.01335 0.2832,1.52735 0.098,0.853 0.47954,1.15248 1.39453,1.14648 7.598,-0.042 15.19497,-0.0194 22.79297,-0.0254 1.356,-0.001 3.05766,0.45164 3.97266,-0.19336 0.988,-0.697 0.71825,-2.57472 1.15625,-3.88672 0.278,-0.835 -0.0651,-1.01208 -0.74609,-1.20508 -3.031,-0.86 -6.04808,-1.77767 -9.08008,-2.63867 -0.541,-0.155 -0.83752,-0.24059 -0.60352,-0.93359 1.342,-3.969 2.63941,-7.95255 3.94141,-11.93555 0.157,-0.481 0.4004,-0.66678 0.9414,-0.67578 7.98801,-0.139 15.9788,-0.29952 23.9668,-0.47852 0.627,-0.013 0.90838,0.20216 1.10938,0.78516 1.471,4.26 2.95528,8.51591 4.48828,12.75391 0.252,0.7 0.0515,0.92379 -0.56055,1.09179 -1.462,0.401 -2.923,0.8101 -4.375,1.2461 -1.178,0.353 -2.78153,0.41089 -3.39453,1.21289 -0.655,0.856 0.38675,2.31325 0.46875,3.53125 0.078,1.184 0.6727,1.36161 1.7207,1.34961 4.558,-0.054 9.11678,-0.0215 13.67578,-0.0215 4.039,0 8.07624,-10e-4 12.11524,0 2.949,0 2.95056,-3.1e-4 3.60156,-2.94531 0.086,-0.39 0.0999,-0.80702 0.25391,-1.16602 0.311,-0.722 -0.006,-0.97168 -0.6543,-1.17968 -2.318,-0.746 -4.60859,-1.57597 -6.93359,-2.29297 -0.816,-0.251 -1.22021,-0.71961 -1.53321,-1.47461 -5.045,-12.121 -9.71092,-24.39058 -14.41992,-36.64258 -2.774,-7.218 -5.99951,-14.28008 -7.85351,-21.83008 -0.166,-0.678 -0.53833,-0.73956 -1.11133,-0.72656 z m -8.71289,11.66211 c 1.125,2.851 2.20494,5.48639 3.21093,8.15039 2.255,5.971 4.47513,11.95359 6.70313,17.93359 0.513,1.378 0.50003,1.39496 -0.91797,1.37696 -6.073,-0.076 -12.1467,-0.15724 -18.2207,-0.24024 -0.188,-0.002 -0.37769,-0.0355 -0.67969,-0.0645 3.168,-9.067 6.3833,-18.03025 9.9043,-27.15625 z"
   style="fill:#727070;fill-opacity:1" />
		<path
   id="path22"
   d="m 401.62305,365.12305 c -0.11891,2.2e-4 -0.24244,0.009 -0.36719,0.0117 -4.241,0.092 -8.43742,0.57737 -12.60742,1.35937 -0.811,0.152 -1.21424,0.45381 -1.49024,1.25781 -6.157,17.976 -13.40204,35.52311 -20.74804,53.03711 -1.314,3.135 -3.00058,5.32924 -6.39258,6.11524 -1.258,0.291 -2.90595,0.67007 -3.50196,1.58008 -0.66099,1.01 0.38525,2.55748 0.53126,3.89648 0.009,0.079 0.028,0.15733 0.041,0.23633 0.088,0.563 0.38842,0.77639 0.98242,0.77539 8.837,-0.017 17.67472,-0.017 26.51172,0 0.596,10e-4 0.87028,-0.2263 0.98828,-0.7793 0.234,-1.093 0.45786,-2.18867 0.75586,-3.26367 0.201,-0.726 0.0375,-1.04195 -0.72851,-1.25195 -3.001,-0.821 -5.97466,-1.74022 -8.97266,-2.57422 -0.744,-0.207 -0.9223,-0.44947 -0.6543,-1.23047 1.321,-3.848 2.58708,-7.71485 3.83008,-11.58985 0.197,-0.617 0.49252,-0.77806 1.10352,-0.78906 7.87,-0.14 15.74037,-0.29028 23.60937,-0.48828 0.859,-0.021 1.17274,0.30002 1.42774,1.04102 1.429,4.149 2.87981,8.29106 4.38281,12.41406 0.287,0.787 0.0845,1.01389 -0.64453,1.21289 -2.348,0.639 -4.67453,1.35391 -7.01953,2.00391 -0.677,0.188 -1.03258,0.39179 -0.76758,1.21679 0.314,0.982 0.54039,2.01407 0.65039,3.03907 0.099,0.917 0.54575,1.04896 1.34375,1.04296 4.639,-0.032 9.27801,-0.0137 13.91601,-0.0137 4.678,0 9.35711,-0.0244 14.03711,0.0176 0.888,0.008 1.28854,-0.22658 1.39454,-1.14258 0.114,-0.987 0.35009,-1.96778 0.62109,-2.92578 0.21,-0.743 -0.0135,-1.0572 -0.73047,-1.2832 -2.245,-0.706 -4.45898,-1.51317 -6.70898,-2.20117 -0.881,-0.27 -1.37247,-0.72775 -1.73047,-1.59375 -5.019,-12.13 -9.69744,-24.39444 -14.39844,-36.64844 -2.77,-7.22 -5.99252,-14.28117 -7.85352,-21.82617 -0.14325,-0.57675 -0.45382,-0.65691 -0.81054,-0.65625 z m -8.99414,11.67578 c 3.591,8.977 6.89031,17.73887 10.07031,26.54687 0.205,0.569 0.36603,0.92783 -0.54297,0.92383 -6.426,-0.033 -12.85216,-0.0176 -19.53516,-0.0176 3.255,-9.337 6.46482,-18.30512 10.00782,-27.45312 z"
   style="fill:#727070;fill-opacity:1" />
		<path
   fill-rule="evenodd"
   clip-rule="evenodd"
   fill="#727070"
   d="m 174.373,435.041 c -5.995,0.024 -11.222,-0.756 -16.196,-2.827 -7.938,-3.307 -13.57,-8.957 -16.491,-17.047 -3.539,-9.799 -3.666,-19.707 0.5,-29.34 4.858,-11.233 13.67,-17.908 25.526,-20.399 10.596,-2.226 20.716,-0.3 30.357,4.443 1.172,0.577 2.214,2.648 1.976,3.914 -0.938,4.981 -1.913,9.955 -2.817,14.942 -0.144,0.793 -0.492,0.961 -1.197,0.925 -2.194,-0.115 -4.389,-0.215 -6.585,-0.27 -0.67,-0.017 -0.849,-0.283 -0.939,-0.915 -0.512,-3.596 -1.161,-7.166 -2.081,-10.687 -0.287,-1.1 -0.835,-1.806 -1.875,-2.263 -7.271,-3.198 -14.482,-3.083 -21.652,0.315 -1.072,0.508 -1.902,1.267 -2.601,2.233 -3.254,4.502 -5.069,9.573 -5.934,15.007 -1.041,6.535 -0.792,13.003 1.582,19.241 2.81,7.386 7.934,12.201 15.935,13.403 4.567,0.686 9.079,0.291 13.397,-1.542 0.99,-0.42 1.585,-1.022 1.85,-2.122 0.766,-3.179 1.67,-6.325 2.461,-9.499 0.195,-0.782 0.466,-1.141 1.345,-1.083 2.311,0.151 4.628,0.213 6.943,0.297 0.75,0.027 1.094,0.282 1.135,1.134 0.202,4.151 0.425,8.308 0.265,12.454 -0.053,1.371 -0.773,2.816 -2.174,3.655 -5.44,3.253 -11.37,4.976 -17.622,5.73 -1.909,0.231 -3.825,0.246 -5.108,0.301 z"
   id="path24"
   style="fill:#727070;fill-opacity:1" />
		
		
		
		
		
		<path
   fill-rule="evenodd"
   clip-rule="evenodd"
   fill="#727070"
   d="m 204.675,464.072 c -0.786,1.314 -1.571,2.63 -2.356,3.944 -0.676,1.131 -1.347,2.265 -2.027,3.393 -0.927,1.534 -2.318,1.521 -3.257,-0.024 -1.449,-2.386 -2.897,-4.771 -4.375,-7.204 -0.354,0.29 -0.218,0.617 -0.219,0.887 -0.012,2.798 -0.022,5.596 0.004,8.393 0.006,0.637 -0.13,0.899 -0.848,0.923 -3.129,0.102 -3.128,0.127 -3.128,-2.965 0,-4.716 0.02,-9.432 -0.018,-14.146 -0.007,-0.871 0.226,-1.083 1.12,-1.188 1.805,-0.21 2.789,0.477 3.645,2.055 1.691,3.117 3.623,6.104 5.532,9.273 1.828,-3.074 3.591,-6.039 5.354,-9.006 0.061,-0.103 0.117,-0.209 0.178,-0.312 1.244,-2.112 1.632,-2.268 4.092,-1.98 0.817,0.096 0.575,0.631 0.577,1.045 0.014,4.876 0.009,9.751 0.009,14.627 0,0.52 -0.038,1.042 0.009,1.558 0.067,0.734 -0.119,1.112 -0.962,1.034 -0.91,-0.084 -2.016,0.252 -2.696,-0.159 -0.717,-0.434 -0.254,-1.621 -0.294,-2.468 -0.098,-2.113 -0.072,-4.232 -0.094,-6.349 -0.004,-0.419 0,-0.838 0,-1.257 -0.083,-0.025 -0.164,-0.05 -0.246,-0.074 z"
   id="path36"
   style="fill:#727070;fill-opacity:1" />
		<path
   fill-rule="evenodd"
   clip-rule="evenodd"
   fill="#727070"
   d="m 443.239,466.733 c 0,-0.78 0,-1.559 0,-2.338 0,-1.719 0,-3.438 0,-5.158 0,-3.473 -10e-4,-3.46 3.565,-3.121 0.523,0.05 0.682,0.233 0.682,0.729 -0.01,5.599 -0.006,11.196 -0.008,16.795 -0.001,0.231 0.045,0.487 -0.19,0.655 -0.552,0.392 -3.451,-0.053 -3.918,-0.619 -2.36,-2.869 -4.714,-5.746 -7.072,-8.617 -0.347,-0.422 -0.704,-0.834 -1.297,-1.535 0,2.081 0,3.813 0,5.545 0,1.439 -0.027,2.88 0.012,4.318 0.02,0.683 -0.115,0.979 -0.904,0.998 -3.387,0.08 -3.386,0.109 -3.386,-3.286 0,-4.639 0.021,-9.276 -0.019,-13.915 -0.007,-0.833 0.24,-0.996 1.059,-1.095 1.832,-0.22 3.004,0.478 4.095,1.926 2.138,2.839 4.465,5.535 6.718,8.287 0.141,0.172 0.235,0.422 0.663,0.431 z"
   id="path38"
   style="fill:#727070;fill-opacity:1" />
		<path
   fill-rule="evenodd"
   clip-rule="evenodd"
   fill="#727070"
   d="m 334.999,466.704 c 0,-3.151 0.033,-6.303 -0.021,-9.453 -0.016,-0.895 0.227,-1.151 1.133,-1.145 3.13,0.025 3.13,-0.012 3.13,3.085 0,4.679 -0.021,9.357 0.019,14.035 0.008,0.865 -0.196,1.104 -1.107,1.18 -1.763,0.147 -2.921,-0.417 -4.01,-1.871 -2.247,-3 -4.732,-5.822 -7.121,-8.719 -0.429,0.243 -0.249,0.602 -0.251,0.881 -0.016,2.879 -0.029,5.759 0.004,8.637 0.009,0.736 -0.139,1.042 -0.974,1.052 -3.318,0.039 -3.317,0.071 -3.317,-3.234 0,-4.639 0.025,-9.277 -0.022,-13.915 -0.01,-0.906 0.263,-1.057 1.129,-1.149 1.786,-0.19 2.925,0.466 3.998,1.885 2.283,3.018 4.759,5.891 7.155,8.823 0.084,-0.032 0.17,-0.062 0.255,-0.092 z"
   id="path40"
   style="fill:#727070;fill-opacity:1" />
		<path
   fill-rule="evenodd"
   clip-rule="evenodd"
   fill="#727070"
   d="m 291.073,463.503 c 0,3.33 -0.055,6.429 0.029,9.523 0.031,1.13 -0.324,1.388 -1.394,1.361 -2.78,-0.069 -2.781,-0.02 -2.781,-2.819 0,-4.794 0.019,-9.589 -0.018,-14.383 -0.006,-0.832 0.245,-1.011 1.065,-1.095 1.767,-0.181 2.914,0.429 3.997,1.873 2.291,3.053 4.811,5.934 7.472,9.17 0,-1.71 0,-3.081 0,-4.453 0,-1.878 0.034,-3.757 -0.017,-5.633 -0.021,-0.753 0.231,-0.928 0.954,-0.937 3.231,-0.042 3.231,-0.065 3.231,3.11 0,4.675 -0.023,9.349 0.021,14.023 0.008,0.897 -0.262,1.073 -1.135,1.158 -1.72,0.168 -2.857,-0.393 -3.91,-1.799 -2.103,-2.811 -4.413,-5.466 -6.643,-8.18 -0.215,-0.261 -0.469,-0.497 -0.871,-0.919 z"
   id="path42"
   style="fill:#727070;fill-opacity:1" />
		<path
   id="path44"
   d="m 514.83008,456.10352 c -1.53875,0.013 -3.07924,0.0648 -4.61524,0.008 -0.896,-0.034 -1.04129,0.31751 -1.02929,1.10351 0.042,2.679 0.0176,5.35811 0.0176,8.03711 0,2.718 0.007,5.4363 -0.006,8.1543 -0.002,0.562 -0.0267,0.98666 0.77929,0.97266 2.957,-0.053 5.91805,0.0297 8.87305,-0.0723 2.125,-0.073 4.08031,-0.81937 5.69531,-2.23437 3.035,-2.659 3.57567,-6.08743 2.51367,-9.73243 -1.078,-3.7 -3.94404,-5.49576 -7.62304,-6.00976 -1.529,-0.214 -3.06672,-0.23956 -4.60547,-0.22656 z m -0.59766,3.5664 c 0.0445,6.8e-4 0.091,0.004 0.14063,0.008 1.546,0.122 3.10739,-0.15006 4.65039,0.21094 2.519,0.591 4.07886,2.46353 4.13086,5.01953 0.063,3.073 -1.29852,5.06791 -3.97852,5.75391 -1.685,0.431 -3.41395,0.23748 -5.12695,0.27148 -0.622,0.012 -0.56445,-0.42626 -0.56445,-0.82226 -0.002,-1.638 9.9e-4,-3.27511 0,-4.91211 0,-1.517 0.0273,-3.03478 -0.0137,-4.55078 -0.0178,-0.64125 0.0935,-0.98865 0.76172,-0.97852 z"
   style="fill:#727070;fill-opacity:1" />
		<path
   id="path46"
   d="m 269.82227,455.81836 c -2.52835,0.0155 -4.87643,0.9085 -6.91211,2.86719 -2.622,2.523 -3.1718,5.73968 -2.3418,9.17968 1.003,4.158 4.84676,6.80088 9.50976,6.79688 2.85801,0.054 5.24246,-0.73617 7.18946,-2.57617 2.64,-2.495 3.46286,-5.61989 2.63086,-9.08789 -0.83,-3.462 -3.1033,-5.72178 -6.5293,-6.67578 -1.21187,-0.3375 -2.39763,-0.51096 -3.54687,-0.50391 z m 0.27148,3.66992 c 3.238,-0.053 5.72911,2.42391 5.78711,5.75391 0.057,3.252 -2.34817,5.7614 -5.57617,5.8164 -3.305,0.056 -5.71296,-2.34346 -5.75196,-5.73047 -0.037,-3.29099 2.33102,-5.78784 5.54102,-5.83984 z"
   style="fill:#727070;fill-opacity:1" />
		<path
   id="path48"
   d="m 171.63281,455.84375 c -0.31302,10e-4 -0.62953,0.0153 -0.94922,0.041 -5.798,0.468 -9.59868,5.15923 -8.80468,10.86523 0.659,4.724 4.56656,7.90311 9.72656,7.91211 6.925,0.013 11.49305,-5.59094 9.74805,-11.96094 -1.14375,-4.18125 -5.02535,-6.87635 -9.72071,-6.85742 z m 0.004,3.64063 c 0.0992,-9.8e-4 0.19817,-4e-5 0.29883,0.004 3.219,0.127 5.52192,2.65422 5.41992,5.94922 -0.104,3.401 -2.53966,5.74023 -5.84766,5.61523 -3.229,-0.121 -5.61575,-2.70392 -5.46875,-5.91992 0.14919,-3.25112 2.52127,-5.61828 5.59766,-5.64843 z"
   style="fill:#727070;fill-opacity:1" />
		<path
   id="path50"
   d="m 413.84766,455.8457 c -0.15912,10e-4 -0.31966,0.004 -0.48047,0.0117 -6.283,0.283 -10.37383,5.57989 -9.04883,11.71289 0.92,4.253 4.80789,7.0918 9.71289,7.0918 6.702,0.002 11.07642,-5.21542 9.73242,-11.60742 -0.90578,-4.30319 -4.98355,-7.24056 -9.91601,-7.20899 z m 0.21875,3.64063 c 3.216,0.019 5.61328,2.48348 5.61328,5.77148 -10e-4,3.384 -2.38474,5.81969 -5.67774,5.80469 -3.245,-0.016 -5.60056,-2.43491 -5.60156,-5.75391 -0.001,-3.387 2.38602,-5.84026 5.66602,-5.82226 z"
   style="fill:#727070;fill-opacity:1" />
		<path
   fill-rule="evenodd"
   clip-rule="evenodd"
   fill="#727070"
   d="m 534.309,465.209 c 0,-2.638 0.027,-5.276 -0.017,-7.914 -0.014,-0.835 0.139,-1.202 1.1,-1.188 3.916,0.055 7.834,0.04 11.751,0.007 0.73,-0.006 0.947,0.193 0.955,0.938 0.025,2.6 0.056,2.6 -2.516,2.6 -2.079,0 -4.157,0.024 -6.235,-0.014 -0.676,-0.012 -0.871,0.194 -0.887,0.876 -0.07,2.984 -0.094,2.984 2.851,2.984 1.599,0 3.198,0.025 4.796,-0.012 0.635,-0.015 0.8,0.21 0.822,0.826 0.092,2.54 0.114,2.539 -2.463,2.539 -1.639,0 -3.279,0.04 -4.916,-0.018 -0.804,-0.027 -1.098,0.161 -1.095,1.037 0.01,3.103 -0.026,3.103 3.079,3.103 1.999,0 3.997,0.02 5.995,-0.012 0.607,-0.009 0.817,0.153 0.841,0.799 0.097,2.604 0.122,2.603 -2.513,2.603 -3.518,0 -7.035,-0.021 -10.552,0.016 -0.784,0.009 -1.026,-0.23 -1.014,-1.016 0.044,-2.717 0.018,-5.436 0.018,-8.154 z"
   id="path52"
   style="fill:#727070;fill-opacity:1" />
		<path
   fill-rule="evenodd"
   clip-rule="evenodd"
   fill="#727070"
   d="m 625.081,468.807 c 0,0.68 -0.087,1.373 0.019,2.035 0.217,1.358 -0.454,2.022 -1.597,2.542 -3.069,1.396 -6.216,1.766 -9.44,0.736 -4.225,-1.348 -6.565,-5.063 -6.256,-9.757 0.271,-4.097 3.312,-7.477 7.463,-8.252 3.416,-0.639 6.596,-0.171 9.371,2.1 0.631,0.516 0.916,0.982 0.045,1.524 -0.166,0.104 -0.298,0.266 -0.447,0.397 -0.478,0.423 -0.895,1.041 -1.45,1.214 -0.628,0.194 -0.985,-0.627 -1.51,-0.939 -2.533,-1.509 -5.974,-1.11 -7.819,0.958 -1.782,1.999 -1.88,5.355 -0.219,7.54 1.574,2.069 5.095,2.826 7.405,1.646 0.508,-0.26 0.547,-0.612 0.545,-1.066 -0.006,-1.239 -0.178,-2.511 0.04,-3.711 0.326,-1.787 1.815,-0.427 2.722,-0.765 0.5,-0.188 1.229,-0.227 1.146,0.801 -0.081,0.992 -0.018,1.997 -0.018,2.997 z"
   id="path54"
   style="fill:#727070;fill-opacity:1" />
		<path
   fill-rule="evenodd"
   clip-rule="evenodd"
   fill="#727070"
   d="m 648.878,462.636 c -0.122,1.783 0.22,3.948 -0.208,6.089 -0.598,2.992 -2.348,4.91 -5.318,5.66 -1.732,0.437 -3.503,0.446 -5.227,0.056 -3.688,-0.837 -5.684,-3.544 -5.754,-7.766 -0.053,-3.196 0.007,-6.394 -0.025,-9.59 -0.007,-0.707 0.164,-1.034 0.931,-0.966 1.065,0.095 2.442,-0.429 3.127,0.201 0.7,0.644 0.205,2.036 0.223,3.099 0.038,2.237 0.015,4.476 0.01,6.713 -10e-4,0.682 0.052,1.351 0.225,2.017 0.536,2.064 1.845,3.01 4.054,2.896 2.073,-0.107 3.348,-1.227 3.639,-3.267 0.306,-2.146 0.116,-4.309 0.151,-6.464 0.022,-1.398 0.05,-2.8 -0.013,-4.195 -0.037,-0.82 0.279,-0.998 1.037,-1.006 3.149,-0.031 3.149,-0.055 3.149,3.04 -10e-4,1.039 -10e-4,2.078 -10e-4,3.483 z"
   id="path56"
   style="fill:#727070;fill-opacity:1" />
		<path
   id="path58"
   d="m 592.19336,456.00586 c -0.43607,0.004 -0.82505,0.15167 -1.07617,0.70117 -2.568,5.621 -5.04346,11.28764 -7.56446,16.93164 -0.215,0.48 -0.2296,0.67533 0.40039,0.73633 3.433,0.332 3.5361,0.28552 4.8711,-2.89648 0.03,-0.075 0.0572,-0.14957 0.0762,-0.22657 0.143,-0.592 0.49414,-0.79629 1.11914,-0.77929 1.677,0.045 3.35616,0.0156 5.03516,0.0156 2.533,0 2.60528,-0.0277 3.48828,2.4043 0.423,1.168 1.00814,1.71661 2.24414,1.47461 0.155,-0.03 0.32147,-0.004 0.48047,-0.004 0.519,0 1.03859,-0.013 1.55859,0.002 0.563,0.018 0.82539,-0.0733 0.52539,-0.73828 -2.537,-5.638 -5.05059,-11.28554 -7.55859,-16.93554 -0.423,-0.953 -1.25919,-0.59653 -1.86719,-0.51953 -0.531,0.0664 -1.17176,-0.17054 -1.73242,-0.16602 z m 1.2168,4.44141 c 0.935,2.252 1.75031,4.2215 2.57031,6.1875 0.182,0.435 -0.005,0.58789 -0.41602,0.58789 -1.394,10e-4 -2.78668,-0.006 -4.17968,0.004 -0.74,0.005 -0.6296,-0.38061 -0.4336,-0.84961 0.781,-1.869 1.55199,-3.74168 2.45899,-5.92968 z"
   style="fill:#727070;fill-opacity:1" />
		<path
   id="path60"
   d="m 663.93555,456.00586 c -0.25878,0.005 -0.53541,0.0325 -0.83203,0.0801 -0.799,0.128 -1.25466,0.27569 -1.59766,1.05468 -2.388,5.44901 -4.82919,10.8706 -7.24219,16.3086 -0.115,0.259 -0.40183,0.51567 -0.17383,0.88867 0.192,0.008 0.38989,0.0274 0.58789,0.0234 1.157,-0.02 2.50502,0.31312 3.41602,-0.17188 0.872,-0.465 1.00325,-1.91422 1.40625,-2.94922 0.223,-0.574 0.52948,-0.77757 1.14648,-0.76757 2.24,0.036 4.47975,0.035 6.71875,0 0.606,-0.009 1.04849,0.139 1.14649,0.75 0.467,2.918 2.32945,3.60553 4.93945,3.14453 0.19,-0.034 0.39297,-0.004 0.79297,-0.004 -0.209,-0.522 -0.34195,-0.892 -0.50195,-1.25 -2.117,-4.736 -4.38192,-9.41347 -6.29492,-14.23047 -0.76475,-1.92762 -1.70027,-2.91526 -3.51172,-2.87695 z m 0.10351,4.43555 c 0.904,2.19 1.66199,4.07254 2.45899,5.93554 0.27,0.632 0.14431,0.86847 -0.55469,0.85547 -1.314,-0.023 -2.63131,-0.007 -3.94531,-0.01 -0.394,0 -0.76435,-0.0248 -0.52735,-0.59375 0.82,-1.969 1.63536,-3.9415 2.56836,-6.1875 z"
   style="fill:#727070;fill-opacity:1" />
		<path
   id="path62"
   d="m 354.86914,456.01758 c -0.25229,0.003 -0.52167,0.0273 -0.81055,0.0703 -0.833,0.124 -1.32926,0.24589 -1.69726,1.08789 -2.374,5.441 -4.81666,10.8523 -7.22266,16.2793 -0.114,0.258 -0.40144,0.5122 -0.14844,0.9082 0.176,0 0.37332,0.003 0.57032,0 1.155,-0.023 2.49711,0.30713 3.41211,-0.17187 0.88,-0.461 0.9932,-1.91146 1.4082,-2.93946 0.227,-0.561 0.51262,-0.79834 1.14062,-0.77734 1.396,0.047 2.82655,0.20161 4.18555,-0.0254 2.602,-0.435 4.13058,0.47336 4.64258,3.06836 0.031,0.153 0.11773,0.2944 0.17773,0.4414 0.118,0.296 0.33335,0.4073 0.65235,0.4043 1.27,-0.011 2.53878,-0.004 3.80078,-0.004 0.078,-0.524 -0.1857,-0.85499 -0.3457,-1.20899 -2.125,-4.767 -4.39708,-9.47436 -6.33008,-14.31836 -0.74988,-1.88037 -1.6695,-2.83541 -3.43555,-2.81445 z m 0.0449,4.42969 c 0.903,2.174 1.68533,4.07475 2.48633,5.96875 0.231,0.547 0.15805,0.8205 -0.50195,0.8125 -1.315,-0.016 -2.63032,-0.013 -3.94532,0 -0.56299,0.006 -0.82592,-0.1 -0.54492,-0.75 0.818,-1.895 1.58586,-3.80825 2.50586,-6.03125 z"
   style="fill:#727070;fill-opacity:1" />
		<path
   id="path64"
   d="m 463.05078,456 c -0.26492,0.005 -0.54814,0.0324 -0.85351,0.082 -0.815,0.133 -1.24708,0.32208 -1.58008,1.08008 -2.388,5.436 -4.82247,10.85225 -7.23047,16.28125 -0.117,0.262 -0.39859,0.51562 -0.1836,0.89062 0.19,0.009 0.38894,0.0303 0.58594,0.0274 1.156,-0.018 2.49206,0.30998 3.41406,-0.16602 0.88601,-0.457 1.01521,-1.90059 1.40821,-2.93359 0.246,-0.647 0.608,-0.80811 1.25,-0.78711 1.316,0.045 2.66326,0.18256 3.94726,-0.0234 2.651,-0.426 4.32641,0.4012 4.81641,3.15821 0.014,0.078 0.0571,0.15056 0.0801,0.22656 0.125,0.399 0.3925,0.5402 0.8125,0.5332 1.234,-0.021 2.4677,-0.008 3.7207,-0.008 0.052,-0.503 -0.19551,-0.84041 -0.35351,-1.19141 -2.111,-4.73 -4.37411,-9.39803 -6.28711,-14.20703 -0.77175,-1.94075 -1.69244,-2.99583 -3.54688,-2.96289 z m 0.10547,4.44141 c 0.907,2.186 1.68209,4.09628 2.49609,5.98828 0.259,0.603 0.21747,0.86951 -0.51953,0.85351 -1.313,-0.029 -2.62745,-0.0139 -3.93945,-0.006 -0.522,0.003 -0.87317,-0.0424 -0.57617,-0.73242 0.827,-1.925 1.61206,-3.86751 2.53906,-6.10351 z"
   style="fill:#727070;fill-opacity:1" />
		<path
   fill-rule="evenodd"
   clip-rule="evenodd"
   fill="#727070"
   d="m 234.905,474.664 c -2.318,0.034 -4.508,-0.454 -6.566,-1.546 -0.624,-0.331 -0.771,-0.688 -0.417,-1.324 0.387,-0.694 0.505,-1.728 1.072,-2.079 0.63,-0.392 1.359,0.51 2.074,0.781 1.598,0.605 3.228,0.864 4.929,0.729 0.527,-0.042 1.024,-0.166 1.493,-0.396 0.569,-0.281 0.974,-0.703 1.009,-1.375 0.035,-0.684 -0.357,-1.105 -0.906,-1.433 -0.804,-0.479 -1.716,-0.637 -2.6,-0.868 -1.349,-0.353 -2.724,-0.614 -4.01,-1.175 -1.642,-0.716 -2.799,-1.866 -2.997,-3.718 -0.209,-1.958 0.377,-3.667 2.025,-4.834 2.646,-1.875 5.615,-1.791 8.631,-1.251 0.235,0.042 0.466,0.107 0.697,0.17 2.74,0.729 3.021,1.49 1.542,3.921 -0.367,0.603 -0.67,0.205 -0.976,0.068 -1.778,-0.797 -3.599,-1.314 -5.565,-0.924 -0.424,0.084 -0.858,0.217 -1.232,0.426 -0.593,0.331 -0.926,0.863 -0.897,1.577 0.028,0.699 0.486,1.076 1.048,1.334 1.095,0.502 2.285,0.697 3.442,0.995 1.081,0.277 2.168,0.535 3.188,0.997 3.189,1.442 3.911,5.358 1.428,7.85 -1.772,1.778 -4.035,2.122 -6.412,2.075 z"
   id="path66"
   style="fill:#727070;fill-opacity:1" />
		<path
   fill-rule="evenodd"
   clip-rule="evenodd"
   fill="#727070"
   d="m 379.139,474.675 c -3.888,-0.029 -7.061,-1.471 -8.854,-5.04 -1.713,-3.404 -1.474,-6.843 0.771,-9.975 3.214,-4.482 10.832,-5.139 14.868,-1.376 0.565,0.527 0.832,0.949 0.045,1.471 -0.132,0.087 -0.23,0.221 -0.349,0.328 -0.502,0.457 -0.937,1.109 -1.526,1.317 -0.718,0.254 -1.042,-0.675 -1.588,-1.019 -2.457,-1.544 -5.938,-1.043 -7.722,1.183 -1.784,2.226 -1.581,5.976 0.43,7.922 2.087,2.019 5.722,2.16 7.875,0.192 0.7,-0.639 1.125,-0.72 1.692,0.025 0.142,0.188 0.364,0.311 0.542,0.472 1.545,1.401 1.546,1.465 -0.196,2.729 -1.782,1.296 -3.797,1.818 -5.988,1.771 z"
   id="path68"
   style="fill:#727070;fill-opacity:1" />
		<path
   fill-rule="evenodd"
   clip-rule="evenodd"
   fill="#727070"
   d="m 149.367,474.662 c -8.056,0.165 -12.044,-7.647 -8.736,-14.012 1.767,-3.399 6.136,-5.352 10.246,-4.713 2.109,0.327 3.993,1.077 5.521,2.626 0.376,0.382 0.543,0.661 0.019,1.016 -0.132,0.089 -0.248,0.202 -0.366,0.31 -0.562,0.511 -1.042,1.227 -1.702,1.481 -0.789,0.305 -1.137,-0.732 -1.758,-1.078 -2.547,-1.422 -5.909,-0.884 -7.604,1.313 -1.79,2.321 -1.563,5.899 0.501,7.906 2.048,1.99 5.524,2.147 7.753,0.207 0.803,-0.699 1.29,-0.689 1.897,0.081 0.123,0.156 0.281,0.284 0.427,0.421 1.497,1.396 1.496,1.396 -0.127,2.618 -1.799,1.356 -3.848,1.881 -6.071,1.824 z"
   id="path70"
   style="fill:#727070;fill-opacity:1" />
		<path
   fill-rule="evenodd"
   clip-rule="evenodd"
   fill="#727070"
   d="m 555.319,465.193 c 0,-2.676 0.021,-5.352 -0.014,-8.026 -0.01,-0.731 0.125,-1.05 0.968,-1.06 3.324,-0.039 3.324,-0.071 3.324,3.227 0,3.515 0.024,7.028 -0.018,10.542 -0.01,0.821 0.195,1.103 1.055,1.082 2.354,-0.059 4.711,0.005 7.066,-0.035 0.739,-0.012 1.041,0.135 1.039,0.968 -0.007,2.473 0.033,2.473 -2.395,2.473 -3.154,0 -6.31,0.008 -9.464,-0.002 -1.772,-0.006 -1.553,0.184 -1.56,-1.501 -0.008,-2.557 -0.001,-5.112 -0.001,-7.668 z"
   id="path72"
   style="fill:#727070;fill-opacity:1" />
		<path
   fill-rule="evenodd"
   clip-rule="evenodd"
   fill="#727070"
   d="m 478.928,465.204 c 0,-2.715 0.022,-5.431 -0.015,-8.145 -0.011,-0.735 0.224,-0.936 0.952,-0.947 3.268,-0.054 3.267,-0.077 3.267,3.189 0,3.354 -0.003,6.707 0.002,10.061 0.002,1.849 -0.085,1.563 1.634,1.572 2.196,0.013 4.393,0.022 6.587,-0.008 0.654,-0.009 0.893,0.174 0.915,0.868 0.083,2.569 0.11,2.568 -2.438,2.568 -3.194,0 -6.39,-0.058 -9.581,0.031 -1.153,0.031 -1.374,-0.36 -1.347,-1.406 0.07,-2.592 0.023,-5.189 0.024,-7.783 z"
   id="path74"
   style="fill:#727070;fill-opacity:1" />
		<path
   fill-rule="evenodd"
   clip-rule="evenodd"
   fill="#727070"
   d="m 393.043,465.188 c 0,-2.713 0.025,-5.427 -0.017,-8.14 -0.012,-0.748 0.228,-0.928 0.952,-0.938 3.343,-0.045 3.343,-0.068 3.343,3.214 0,4.588 -0.025,9.177 0.021,13.766 0.01,0.939 -0.152,1.421 -1.214,1.285 -0.978,-0.125 -2.254,0.408 -2.881,-0.205 -0.633,-0.618 -0.178,-1.893 -0.194,-2.878 -0.034,-2.034 -0.01,-4.069 -0.01,-6.104 z"
   id="path76"
   style="fill:#727070;fill-opacity:1" />
		<path
   fill-rule="evenodd"
   clip-rule="evenodd"
   fill="#727070"
   d="m 216.883,465.211 c 0,-2.714 0.021,-5.427 -0.015,-8.14 -0.009,-0.713 0.175,-0.949 0.927,-0.962 3.367,-0.057 3.366,-0.082 3.366,3.312 0,4.628 -0.02,9.257 0.018,13.885 0.007,0.834 -0.223,1.148 -1.068,1.068 -1.024,-0.098 -2.352,0.411 -3.006,-0.194 -0.668,-0.62 -0.195,-1.961 -0.213,-2.984 -0.034,-1.994 -0.009,-3.989 -0.009,-5.985 z"
   id="path78"
   style="fill:#727070;fill-opacity:1" />
		<path
   fill-rule="evenodd"
   clip-rule="evenodd"
   fill="#727070"
   d="m 253.452,465.327 c 0,2.676 -0.025,5.352 0.016,8.027 0.012,0.771 -0.207,1.02 -1.002,1.028 -3.219,0.036 -3.218,0.063 -3.218,-3.095 0,-4.673 0.02,-9.347 -0.019,-14.02 -0.007,-0.857 0.166,-1.173 1.107,-1.164 3.116,0.03 3.116,-0.012 3.116,3.111 0,2.038 0,4.075 0,6.113 z"
   id="path80"
   style="fill:#727070;fill-opacity:1" />
		<path
   fill-rule="evenodd"
   clip-rule="evenodd"
   fill="#727070"
   d="m 267.959,454.558 c 1.087,-1.167 2.118,-2.297 3.178,-3.396 0.339,-0.353 0.831,-0.19 1.255,-0.198 0.979,-0.018 1.959,-0.006 2.983,0.146 -2.238,1.581 -3.772,4.539 -7.416,3.448 z"
   id="path82"
   style="fill:#727070;fill-opacity:1" />
		
		
		
		
		
		
		
		
		
		
		
	</g>
</g>
</svg>
